<?xml version="1.0" encoding="utf-8"?>
<svg viewBox="0 0 30 30" fill="none" xmlns="http://www.w3.org/2000/svg">
  <ellipse cx="15" cy="15" rx="15" ry="15" fill="#3683F0" style=""/>
  <path d="M 14.72 11.44 L 9.329 15.893 L 9.329 20.668 C 9.329 20.932 9.534 21.137 9.798 21.137 L 13.079 21.137 C 13.313 21.137 13.519 20.932 13.519 20.668 L 13.519 17.856 C 13.519 17.621 13.753 17.387 13.987 17.387 L 15.862 17.387 C 16.126 17.387 16.331 17.621 16.331 17.856 L 16.331 20.668 C 16.331 20.932 16.565 21.137 16.8 21.137 L 20.11 21.137 C 20.345 21.137 20.579 20.932 20.579 20.668 L 20.579 15.863 L 15.159 11.44 C 15.101 11.381 15.013 11.352 14.954 11.352 C 14.866 11.352 14.778 11.381 14.72 11.44 Z M 23.245 14.457 L 20.813 12.436 L 20.813 8.393 C 20.813 8.188 20.638 8.041 20.462 8.041 L 18.821 8.041 C 18.616 8.041 18.47 8.188 18.47 8.393 L 18.47 10.502 L 15.833 8.334 C 15.599 8.158 15.276 8.041 14.954 8.041 C 14.602 8.041 14.28 8.158 14.046 8.334 L 6.634 14.457 C 6.546 14.516 6.487 14.633 6.487 14.721 C 6.487 14.809 6.546 14.897 6.575 14.955 L 7.337 15.863 C 7.395 15.951 7.483 15.981 7.601 15.981 C 7.688 15.981 7.776 15.951 7.835 15.893 L 14.72 10.238 C 14.778 10.18 14.866 10.15 14.954 10.15 C 15.013 10.15 15.101 10.18 15.159 10.238 L 22.044 15.893 C 22.102 15.951 22.19 15.981 22.278 15.981 C 22.395 15.981 22.483 15.951 22.542 15.863 L 23.304 14.955 C 23.362 14.897 23.392 14.809 23.392 14.721 C 23.392 14.633 23.333 14.516 23.245 14.457 Z" fill="white"/>
</svg>