<?xml version="1.0" encoding="utf-8"?>
<svg viewBox="0 0 30 30" xmlns="http://www.w3.org/2000/svg" xmlns:bx="https://boxy-svg.com">
  <path d="M 15.001 0 C 6.728 0 0 6.731 0 15 C 0 23.271 6.728 30 15.001 30 C 23.272 30 30 23.271 30 15 C 30 6.731 23.272 0 15.001 0 Z M 15.001 24.23 C 13.492 24.23 12.295 23.592 12.133 22.241 C 12.129 22.201 12.133 22.16 12.146 22.121 C 12.159 22.084 12.179 22.047 12.206 22.017 C 12.234 21.987 12.267 21.964 12.304 21.948 C 12.341 21.931 12.382 21.923 12.42 21.923 L 17.574 21.923 C 17.615 21.923 17.657 21.931 17.694 21.948 C 17.731 21.964 17.765 21.988 17.792 22.018 C 17.82 22.051 17.84 22.085 17.852 22.125 C 17.863 22.165 17.868 22.204 17.862 22.246 C 17.679 23.571 16.491 24.23 15.001 24.23 Z M 22.069 20.769 L 7.932 20.769 C 7.079 20.769 6.635 19.688 7.126 19.111 C 8.303 17.716 9.134 17.13 9.134 13.284 C 9.134 9.76 10.992 8.508 12.526 7.897 C 12.63 7.856 12.724 7.789 12.805 7.706 C 12.882 7.624 12.942 7.524 12.983 7.417 C 13.247 6.533 14 5.769 15.001 5.769 C 15.999 5.769 16.751 6.533 17.019 7.417 C 17.058 7.524 17.119 7.624 17.196 7.707 C 17.276 7.79 17.371 7.856 17.478 7.901 C 19.007 8.507 20.867 9.761 20.867 13.285 C 20.867 17.13 21.697 17.716 22.874 19.111 C 23.362 19.688 22.916 20.769 22.069 20.769 Z" style="" fill="#3683F0" bx:origin="0.5 0.4832"/>
  <ellipse cx="19.109" cy="9.699" rx="2.719" ry="2.616" fill="#FF2C55" style=""/>
</svg>