<?xml version="1.0" encoding="utf-8"?>
<svg viewBox="0 0 30 30" xmlns="http://www.w3.org/2000/svg" xmlns:bx="https://boxy-svg.com">
  <ellipse cx="15" cy="15" rx="15" ry="15" fill="#3683F0" style=""/>
  <path d="M 25.113 19.79 L 20.545 15.228 C 19.608 14.33 18.281 14.137 17.187 14.683 L 13.049 10.546 L 13.049 8.089 L 8.052 4.345 L 5.553 6.843 L 9.301 11.833 L 11.722 11.833 L 15.86 16.008 C 15.352 17.1 15.509 18.426 16.407 19.323 L 20.975 23.925 C 21.56 24.47 22.459 24.47 23.044 23.925 L 25.113 21.859 C 25.66 21.271 25.66 20.377 25.113 19.79 Z M 18.476 13.12 C 19.608 13.12 20.623 13.549 21.404 14.33 L 22.185 15.109 C 22.771 14.837 23.356 14.446 23.864 13.94 C 25.308 12.498 25.816 10.469 25.347 8.634 C 25.269 8.285 24.84 8.166 24.567 8.402 L 21.677 11.326 L 19.023 10.858 L 18.593 8.207 L 21.483 5.321 C 21.755 5.047 21.599 4.618 21.248 4.541 C 19.413 4.072 17.384 4.579 15.938 6.023 C 14.806 7.114 14.299 8.597 14.299 10.039 L 17.539 13.238 C 17.851 13.16 18.163 13.12 18.476 13.12 Z M 14.415 16.319 L 12.229 14.137 L 6.256 20.064 C 5.279 21.038 5.279 22.638 6.256 23.614 C 7.231 24.589 8.833 24.589 9.809 23.614 L 14.611 18.777 C 14.338 17.997 14.22 17.178 14.415 16.319 Z M 8.052 22.755 C 7.505 22.755 7.115 22.365 7.115 21.819 C 7.115 21.31 7.505 20.884 8.052 20.884 C 8.559 20.884 8.989 21.31 8.989 21.819 C 8.989 22.365 8.559 22.755 8.052 22.755 Z" fill="white" style="" bx:origin="0.506701 0.575169"/>
</svg>